# xmcd
#
# Track frame offsets: 
#        150
#        450
#        21694
#        37585
#        49533
#        58174
#        60976
#        122807
#        138561
#        151107
#        161470
#        184826
#        219395
#        255520
#        264244
#        277912
#        290295
#        317115
#
# Disc length: 4262 seconds
#
# Revision: 0
# Processed by: cddbd v1.5.1PL2 Copyright (c) Steve Scherf et al.
# Submitted via: ExactAudioCopy v0.95b4
#
DISCID=ef10a412
DTITLE=Various Artist - The Blues Roots of Led Zeppelin [CD4]
DYEAR=1900
DGENRE=Rock and Blues
TTITLE0=1. Jimmy Page
TTITLE1=2. Hots On For Nowhere - Led Zeppelin
TTITLE2=3. Pride And Joy - David Coverdale and Jimmy Page
TTITLE3=4. Boogie Chillun - John Lee Hooker
TTITLE4=5. That's All Right - Elvis Presley
TTITLE5=6. Setting The Stage - John Paul Jones
TTITLE6=7. Whole Lotta Love Medley - Led Zeppelin
TTITLE7=8. Whole Lotta Love - Robert Plant
TTITLE8=9. Fixin' To Die Blues - Bukkah White
TTITLE9=10. Fixin' To Die - Bob Dylan
TTITLE10=11. Funny In My Mind (I Believe I'm Fixin' To Die) - Robert P
TTITLE10=lant
TTITLE11=12. She Moved Through The Bizarre (Blue Regga) - Davey Graham
TTITLE12=13. White Summer-Black Mounatin Side - Led Zeppelin
TTITLE13=14. She Likes It - Owen Hand
TTITLE14=15. Poor Tom - Led Zeppelin
TTITLE15=16. Rockin' At Midnight - Roy Browne
TTITLE16=17. Rockin' At Midnight - The Honeydrippers
TTITLE17=18. Remaining Relevant - Page and Plant
EXTD=
EXTT0=
EXTT1=
EXTT2=
EXTT3=
EXTT4=
EXTT5=
EXTT6=
EXTT7=
EXTT8=
EXTT9=
EXTT10=
EXTT11=
EXTT12=
EXTT13=
EXTT14=
EXTT15=
EXTT16=
EXTT17=
PLAYORDER=
